<svg width="400" height="462" viewBox="0 0 400 462" fill="none" xmlns="http://www.w3.org/2000/svg">
<path d="M357.387 1.30328C358.377 2.45016 358.95 2.60657 362.18 2.71085C365.566 2.76297 365.409 2.81509 360.408 3.12787C357.387 3.3364 277.629 3.54492 183.128 3.59708C88.6265 3.59708 11.0564 3.75345 10.796 3.96198C10.5355 4.11838 10.3271 92.2724 10.3271 227.084V449.945L5.22174 449.789L0.168488 449.633L0.012207 225.52C-0.0398865 60.2638 0.0643005 1.25116 0.481079 0.729828C1.00201 0.104279 29.9671 0 178.647 0H356.241L357.387 1.30328Z" fill="white"/>
<path d="M379.839 9.27945C380.62 10.1657 380.725 11.7296 380.725 24.0847C380.725 31.748 380.881 38.3166 381.037 38.7858C381.298 39.4635 382.392 39.6198 387.445 39.6198C392.759 39.6198 393.748 39.7762 395.52 40.8189C398.802 42.6956 399.739 44.3638 399.739 48.3779C399.739 51.0366 399.479 52.1835 398.697 53.2783C396.614 56.0412 395.051 56.5625 387.914 56.7189C381.714 56.9275 381.35 56.9796 381.037 58.0222C380.881 58.6478 380.725 64.1216 380.725 70.1688C380.725 78.4055 380.881 81.3249 381.35 81.6898C381.714 82.0026 384.371 82.2633 387.236 82.3154C393.696 82.4718 395.884 83.0974 397.916 85.339C400.781 88.4669 400.573 94.2013 397.499 97.0686C395.415 98.9974 393.123 99.5709 387.289 99.5709C383.85 99.5709 381.766 99.7794 381.35 100.196C380.464 101.083 380.464 120.997 381.35 121.883C381.766 122.3 383.954 122.509 387.862 122.509C393.175 122.509 393.957 122.613 395.728 123.76C398.75 125.689 399.531 126.836 399.844 129.911C400.208 133.404 399.166 135.906 396.509 137.94C394.738 139.295 394.217 139.399 387.966 139.608C381.766 139.816 381.298 139.921 381.037 140.963C380.62 142.423 380.62 162.858 381.037 163.901C381.298 164.579 382.235 164.735 386.142 164.735C392.238 164.735 395.572 165.673 397.916 168.124C399.583 169.844 399.739 170.261 399.739 173.285C399.739 177.194 399.114 178.55 396.197 180.635C394.165 182.095 393.748 182.147 387.653 182.355C381.61 182.564 381.193 182.668 380.985 183.711C380.829 184.284 380.777 189.237 380.829 194.711L380.985 204.615L387.497 204.876C393.696 205.137 394.113 205.189 396.197 206.701C399.062 208.734 399.739 210.141 399.739 213.947C399.739 216.449 399.479 217.492 398.489 218.795C396.457 221.506 394.582 222.079 387.757 222.132C381.819 222.184 381.714 222.184 381.193 223.487C380.672 224.895 380.516 245.434 381.037 246.79C381.298 247.467 382.287 247.624 386.663 247.624C393.123 247.624 395.78 248.354 397.864 250.752C400.729 254.036 400.729 259.249 397.76 262.116C395.363 264.41 393.853 264.827 387.497 264.827C382.392 264.827 381.766 264.931 381.245 265.818C380.568 267.173 380.568 286.983 381.245 288.338C381.766 289.225 382.392 289.329 388.174 289.329C395.103 289.329 396.145 289.642 398.541 292.717C400.26 294.907 400.208 300.433 398.541 302.622C396.197 305.542 394.842 306.011 388.018 306.011C382.392 306.011 381.766 306.115 381.245 307.001C380.672 308.096 380.464 329.314 381.037 330.721C381.298 331.399 382.339 331.555 386.976 331.555C396.457 331.555 399.739 333.849 399.739 340.522C399.739 343.858 399.635 344.171 397.864 345.943C395.572 348.237 393.54 348.706 386.663 348.759C381.61 348.759 381.35 348.811 381.037 349.905C380.672 351.417 380.62 368.985 381.037 370.497C381.35 371.54 381.714 371.592 388.018 371.801C394.582 371.957 394.738 372.009 396.718 373.573C401.615 377.535 400.729 385.355 395.103 388.066C393.8 388.691 391.769 388.9 387.341 388.9C382.339 388.9 381.298 389.056 381.037 389.734C380.412 391.35 380.672 413.141 381.35 413.818C381.766 414.235 383.954 414.444 387.862 414.444C394.426 414.444 396.249 415.017 398.437 417.728C399.531 419.084 399.739 419.918 399.739 422.785C399.739 426.643 398.854 428.415 396.145 430.031C394.894 430.813 393.019 431.074 387.914 431.387C381.766 431.699 381.298 431.804 381.037 432.846C380.881 433.472 380.725 440.249 380.725 447.912V461.883L202.402 461.988C104.358 461.988 23.6624 461.988 23.1415 461.936C22.2559 461.883 20.7972 460.528 20.7451 459.746C20.7451 459.538 21.2139 459.277 21.787 459.121C22.8289 458.86 22.8289 458.391 22.8289 234.435C22.8289 55.4156 22.9852 9.905 23.454 9.5401C23.8187 9.33157 103.368 9.12305 200.214 9.12305C297.059 9.12305 376.869 8.91452 377.599 8.70599C378.641 8.34106 379.162 8.49747 379.839 9.27945ZM350.822 35.1366C347.54 37.274 346.654 38.2123 345.352 41.1838C343.737 44.9373 343.528 47.0746 344.518 50.776C345.612 54.7901 348.425 58.2829 351.968 60.0553C355.458 61.7757 361.866 61.7757 364.731 60.0032C365.825 59.3255 366.919 58.3871 367.18 57.8658C367.596 57.0838 367.388 56.9275 365.617 56.6147C361.345 55.937 358.063 50.6196 359.053 46.032C359.782 42.9563 364.002 39.6198 367.232 39.6198C368.326 39.6198 369.316 39.4113 369.524 39.0985C370.253 37.9517 365.304 34.1982 361.814 33.312C360.876 33.1035 358.636 32.9992 356.813 33.1556C354.26 33.3641 352.958 33.7812 350.822 35.1366ZM353.01 76.581C348.321 78.562 345.248 82.4718 344.206 87.6328C342.799 94.7748 347.852 102.23 355.25 103.793C358.636 104.523 363.793 103.637 365.929 101.917C367.753 100.457 367.232 99.5187 364.054 98.5804C358.844 97.0164 357.177 89.5616 361.085 85.2869C362.283 83.9836 363.637 83.2538 366.034 82.576C367.805 82.1069 369.264 81.377 369.264 81.0642C369.264 80.1259 367.076 78.3013 364.262 76.9459C361.032 75.2777 356.292 75.1734 353.01 76.581ZM131.187 97.5378C126.707 98.2676 123.321 98.9453 121.029 99.623C117.486 100.666 112.746 102.177 111.652 102.647C111.079 102.907 109.568 103.585 108.265 104.158C104.879 105.618 102.431 106.817 101.233 107.547C91.0739 113.855 87.6356 116.461 81.3842 122.717C70.1837 133.925 64.1406 144.456 58.1496 163.119C57.837 164.109 57.4203 166.247 57.2119 167.811C56.9514 169.427 56.4825 172.503 56.17 174.64C55.4406 179.332 55.7532 195.336 56.6909 199.924C58.4622 208.786 61.119 216.866 64.6615 224.165C66.1202 227.188 67.4747 229.691 67.7352 229.795C67.9435 229.899 68.1519 230.212 68.1519 230.525C68.1519 232.193 78.5189 245.121 83.6243 249.865C93.5745 259.041 106.025 266.183 118.164 269.78C119.726 270.249 121.81 270.874 122.8 271.187C123.738 271.448 126.082 271.969 128.01 272.23C129.885 272.49 132.75 272.907 134.313 273.168C138.377 273.794 150.098 273.742 154.109 273.116C155.985 272.855 158.85 272.386 160.465 272.126C163.487 271.708 164.216 271.5 170.259 269.571C178.594 266.965 184.168 264.514 189.274 261.23C190.42 260.5 191.566 259.77 191.879 259.614C194.379 258.363 201.933 252.368 205.892 248.458C213.602 240.899 219.177 233.34 223.553 224.373C227.512 216.189 228.814 212.018 231.836 198.36C233.294 191.739 232.617 174.119 230.638 166.038C230.325 164.891 229.856 162.91 229.596 161.607C229.283 160.304 228.866 158.792 228.606 158.219C228.397 157.645 227.772 155.977 227.303 154.569C225.428 149.096 220.271 139.451 216.363 133.873C213.863 130.328 206.622 121.883 204.798 120.423C195.056 112.447 190.576 109.424 183.179 105.774C180.365 104.367 177.865 103.22 177.604 103.22C177.344 103.22 176.458 102.855 175.677 102.438C174.843 102.021 173.801 101.656 173.333 101.656C172.916 101.656 172.343 101.448 172.03 101.135C171.77 100.874 170.467 100.405 169.217 100.144C167.915 99.8837 165.831 99.3623 164.528 99.0496C158.277 97.5378 156.61 97.2771 151.505 96.9643C145.253 96.5472 135.355 96.86 131.187 97.5378ZM351.759 117.191C345.925 120.163 342.486 127.826 344.414 133.508C346.758 140.494 351.239 143.882 357.959 143.987C362.126 144.091 365.877 142.736 367.023 140.807C367.649 139.816 367.544 139.712 366.242 139.451C363.846 138.93 361.605 137.627 360.355 135.906C358.48 133.404 358.584 128.608 360.511 126.054C362.126 123.916 364.575 122.509 366.659 122.509C367.388 122.509 368.43 122.196 368.951 121.831C369.784 121.205 369.732 121.049 368.065 119.537C366.502 118.13 364.679 117.087 361.97 116.044C360.251 115.367 353.895 116.096 351.759 117.191ZM353.895 159.053C353.635 159.313 353.114 159.522 352.749 159.522C352.02 159.522 349.415 161.242 347.956 162.65C346.446 164.109 345.404 166.143 344.466 169.166C343.737 171.825 343.685 172.607 344.258 175.109C345.143 178.863 346.342 180.896 349.311 183.502C352.228 186.057 354.833 186.839 359.626 186.526C365.773 186.109 369.941 182.512 365.2 181.73C361.241 181.104 358.376 176.465 359.105 171.929C359.626 168.801 361.97 166.507 365.773 165.308C367.544 164.787 369.003 164.162 369.107 163.901C369.472 162.65 365.877 160.043 362.491 159.053C361.189 158.688 359.886 158.271 359.626 158.166C358.74 157.906 354.468 158.531 353.895 159.053ZM352.176 199.663C347.748 201.957 345.3 205.293 344.258 210.402C343.685 213.217 343.737 213.947 344.518 216.397C346.081 221.141 348.269 223.748 352.333 225.729C356.604 227.814 365.252 226.563 367.076 223.591C367.649 222.705 367.492 222.549 365.461 222.027C362.699 221.35 361.293 220.203 359.834 217.44C358.376 214.573 358.688 211.34 360.668 208.734C362.231 206.701 365.565 204.928 367.805 204.876C368.586 204.876 369.316 204.668 369.472 204.459C369.889 203.729 366.711 200.758 364.367 199.663C361.345 198.255 354.937 198.255 352.176 199.663ZM353.635 241.733C348.686 243.558 345.508 247.259 344.258 252.733C342.955 258.363 346.342 265.244 351.759 268.059C353.427 268.945 354.885 269.206 358.376 269.206C362.387 269.258 363.012 269.102 364.992 267.799C366.19 267.017 367.18 266.183 367.18 265.922C367.18 265.713 366.034 265.036 364.627 264.41C363.064 263.784 361.553 262.638 360.616 261.386C359.313 259.718 359.105 258.936 359.105 256.278C359.105 251.69 361.137 249.292 365.982 248.041C367.336 247.676 368.795 247.207 369.159 246.894C370.149 246.164 368.065 244.235 364.314 242.411C360.668 240.586 357.229 240.378 353.635 241.733ZM351.239 284.168C347.175 286.67 345.195 289.537 344.206 294.281C343.633 297.044 343.685 297.774 344.518 300.276C345.821 304.343 348.165 307.262 351.603 309.139C355.667 311.276 360.407 311.328 364.523 309.243C367.857 307.575 368.378 306.689 366.294 306.272C363.481 305.646 361.189 304.03 359.991 301.788C358.584 299.077 358.532 296.575 359.938 293.708C361.189 291.049 363.481 289.589 367.128 289.068C368.586 288.86 369.784 288.547 369.784 288.338C369.784 287.973 367.18 285.471 365.461 284.116C362.647 281.978 354.677 282.03 351.239 284.168ZM352.124 326.29C347.54 328.688 345.456 331.451 344.258 336.873C343.685 339.427 343.737 340.209 344.518 342.92C345.716 346.778 348.582 350.322 351.968 351.991C355.25 353.607 361.189 353.659 364.419 352.147C367.805 350.531 367.961 348.289 364.679 348.237C362.804 348.237 359.47 344.379 359.053 341.721C358.271 336.456 362.439 331.555 367.649 331.555C369.732 331.555 370.149 330.669 368.743 329.209C367.596 327.958 363.22 325.612 361.189 325.091C359.209 324.622 354.156 325.299 352.124 326.29ZM351.864 366.327C346.133 369.194 342.695 376.753 344.466 382.644C345.977 387.805 348.894 390.933 353.635 392.705C357.438 394.113 360.824 393.852 364.627 391.871C366.398 390.985 367.857 389.994 367.909 389.682C367.961 389.421 367.232 389.056 366.398 388.9C363.898 388.378 361.814 387.075 360.407 385.146C359.365 383.791 359.105 382.8 359.105 380.246C359.105 377.639 359.313 376.805 360.511 375.241C362.179 373.052 364.835 371.696 367.336 371.696C368.378 371.696 369.316 371.488 369.472 371.279C370.253 369.976 365.304 366.118 361.97 365.388C359.417 364.815 353.791 365.336 351.864 366.327ZM352.541 408.71C349.571 410.065 348.998 410.534 346.758 413.453C344.31 416.686 343.32 421.221 344.258 424.714C345.664 429.823 347.904 432.638 352.437 434.984C356.344 436.965 365.304 435.557 367.023 432.742C367.649 431.752 367.544 431.647 366.242 431.387C359.782 430.083 356.761 422.889 360.564 417.885C362.022 416.008 364.575 414.444 366.19 414.444C366.711 414.444 367.753 414.183 368.534 413.923L369.941 413.349L368.43 411.785C364.731 407.875 357.438 406.468 352.541 408.71Z" fill="white"/>
<path d="M143.323 125.272C146.032 125.949 148.376 129.129 148.376 132.049C148.376 135.437 146.97 137.158 138.478 143.935C137.176 144.977 135.3 146.593 134.31 147.532C133.321 148.418 131.341 150.138 129.882 151.337C128.476 152.536 126.34 154.413 125.194 155.456C122.902 157.645 123.058 158.062 126.496 158.896C127.486 159.157 129.466 159.678 130.924 160.043C132.331 160.356 135.04 161.034 136.915 161.451C138.791 161.868 141.708 162.545 143.427 162.963C145.146 163.38 147.491 163.953 148.637 164.162C149.783 164.422 153.169 165.256 156.191 165.986C159.212 166.768 163.171 167.759 165.047 168.176C166.922 168.645 169.266 169.218 170.308 169.479C172.548 170.052 174.424 170.105 174.424 169.583C174.424 169.166 167.86 153.37 166.089 149.356C164.578 146.124 162.442 139.816 162.442 138.774C162.442 136.584 164.578 133.508 166.87 132.414C169.423 131.162 171.767 131.423 174.216 133.248C175.935 134.499 176.299 135.333 184.843 155.873C187.187 161.451 189.271 166.507 189.479 167.081C189.74 167.654 190.469 169.427 191.094 170.991C191.72 172.555 192.397 174.066 192.657 174.275C193.074 174.744 197.502 176.047 200.732 176.725C209.119 178.341 211.933 180.114 211.933 183.711C211.933 186.265 210.682 189.967 209.432 191.322C208.807 192 207.661 192.365 205.681 192.469C202.555 192.625 202.764 192.417 200.42 197.838C198.752 201.696 198.7 201.8 195.002 211.393C193.126 216.241 191.251 220.933 190.886 221.819C190.521 222.653 189.427 225.468 188.438 228.022C184.999 236.989 180.311 240.013 172.496 238.188C171.09 237.875 168.693 237.302 167.131 236.937C160.567 235.373 159.368 235.112 154.888 234.07C152.283 233.444 148.897 232.61 147.334 232.245C145.771 231.828 141.291 230.785 137.436 229.847C133.581 228.961 129.205 227.918 127.799 227.553C122.276 226.146 114.358 224.269 111.649 223.696C108.888 223.122 104.929 222.132 101.907 221.245C100.553 220.828 99.0418 220.515 98.573 220.515C97.3227 220.515 92.2173 219.004 90.0293 218.013C87.5288 216.866 85.6012 214.729 84.5072 211.914C83.6737 209.672 83.6737 208.89 84.2467 202.374C84.6114 198.464 85.0803 192.312 85.3928 188.715C85.6533 185.118 86.0701 180.687 86.3827 178.81C86.6431 176.934 87.0078 173.024 87.2162 170.157L87.5288 164.891L86.018 164.318C85.2366 164.005 84.1425 163.38 83.6216 162.963C81.3294 161.138 81.7462 154.465 84.2988 151.702C85.5491 150.347 86.1222 150.138 88.3623 150.138C89.7689 150.138 92.1132 150.451 93.4676 150.868C98.2604 152.276 102.532 153.266 103.678 153.266C104.72 153.266 115.712 144.299 128.788 132.778C133.946 128.243 138.166 125.272 139.78 125.011C140.614 124.855 142.229 124.959 143.323 125.272ZM115.817 173.493C114.202 174.484 112.951 177.351 111.909 182.46C111.649 183.763 111.076 186.317 110.607 188.194C110.138 190.071 109.461 192.99 109.044 194.71C108.679 196.431 108.054 198.777 107.742 199.871C106.96 202.53 107.377 205.189 108.836 206.753C109.773 207.743 110.555 208.004 112.743 208.004C115.244 208.004 115.608 207.848 116.754 206.284C117.952 204.72 118.421 203.208 119.776 197.109C120.036 195.805 120.453 194.033 120.766 193.199C121.026 192.312 121.755 189.341 122.328 186.63C122.954 183.919 123.683 180.791 123.996 179.749C124.725 177.246 123.787 174.901 121.599 173.545C119.567 172.294 117.796 172.294 115.817 173.493ZM141.187 179.332C139.364 180.479 138.791 181.573 137.645 186.369C137.228 188.09 136.655 190.331 136.394 191.322C134.519 197.995 132.175 209.255 132.435 210.193C132.591 210.871 133.321 212.018 134.05 212.8C135.144 213.947 135.873 214.26 137.697 214.26C141.187 214.26 142.698 212.383 144.156 206.023C144.834 203.208 145.563 200.393 145.771 199.663C146.032 198.933 146.709 196.014 147.334 193.147C147.959 190.279 148.689 187.412 148.949 186.734C150.147 183.815 148.949 180.531 146.188 179.175C143.948 178.081 143.271 178.081 141.187 179.332ZM165.568 185.952C164.161 187.256 163.744 188.35 162.129 194.971C161.14 199.142 160.098 203.364 159.837 204.355C157.18 214.051 157.128 216.658 159.368 218.899C161.192 220.724 163.275 220.985 165.516 219.681C167.652 218.43 167.964 217.7 169.996 209.203C170.986 204.98 171.975 201.018 172.132 200.445C172.913 197.578 174.007 192.365 174.268 190.488C174.476 188.611 174.32 188.142 172.705 186.474C170.413 184.024 167.912 183.815 165.568 185.952Z" fill="white"/>
</svg>
